<?xml version="1.0" encoding="iso-8859-1"?>
<!-- Uploaded to: SVG Repo, www.svgrepo.com, Generator: SVG Repo Mixer Tools -->
<svg height="800px" width="800px" version="1.1" id="Capa_1" xmlns="http://www.w3.org/2000/svg" xmlns:xlink="http://www.w3.org/1999/xlink" 
	 viewBox="0 0 307.046 307.046" xml:space="preserve">
<g>
	<path style="fill:#010002;" d="M182.311,27.42c-21.055-11.199-44.883-8.126-67.961-7.827c-3.612,0.049-6.44,1.278-8.561,3.138
		c-2.981,2.17-5.064,5.624-5.037,10.459c0.359,60.716,7.212,121.188,2.012,181.795c-1.904,22.175-2.17,45.46,14.147,62.326
		c15.121,15.626,44.633,9.388,63.479,8.898c5.782-0.147,11.852-4.003,13.114-9.981c13.391-63.545,5.553-129.074,2.578-193.288
		C195.316,66.32,200.858,37.281,182.311,27.42z M169.061,259.733c-18.569,1.463-38.019,2.698-39.83-21.898
		c-1.398-19.042,2.763-38.345,3.323-57.371c1.327-44.758-3.329-89.712-4.373-134.524c16.072-0.936,39.286-1.278,40.097,7.62
		c1.915,20.93,1.202,42.506,2.399,63.55C173.374,164.354,177.247,212.832,169.061,259.733z"/>
	<path style="fill:#010002;" d="M13.89,284.187c19.031,5.211,42.708,4.525,62.016,1.686c27.304-4.019,12.352-55.941,12.118-72.389
		c-0.408-29.268,3.345-60.151-3.084-88.945c-7.049-31.579-47.178-18.357-69.74-17.574c-5.852,0.201-9.703,3.405-11.645,7.522
		c-1.023,1.719-1.741,3.726-1.953,6.075c-4.542,49.985,1.974,100.443,2.301,150.515C3.948,277.122,8.027,282.577,13.89,284.187z
		 M27.972,133.335c4.406-0.37,8.811-0.772,13.228-1.082c14.343-1.006,17.911-4.134,19.396,11.558
		c1.876,19.842,0.12,40.347,0.174,60.259c0.033,13.413-1.229,28.223,1.224,41.44c0.549,2.915,1.077,5.836,1.594,8.757
		c0.49,2.73,1.023,4.552,1.523,5.776c-0.212-0.016-0.424-0.033-0.674-0.011c-10.198,0.81-22.512,1.24-33.559-0.19
		C29.903,217.733,25.633,175.395,27.972,133.335z"/>
	<path style="fill:#010002;" d="M219.911,59.657c-6.608,1.289-9.573,5.956-9.779,11.02c-0.092,0.68-0.207,1.349-0.201,2.089
		c0.087,35.381,0.968,70.746,2.099,106.105c1.033,32.308-0.843,65.138,3.758,97.169c0.914,6.375,7.626,9.323,13.114,9.981
		c21.56,2.594,42.887-0.631,64.507,0c6.929,0.201,14.234-6.353,13.598-13.598c-5.472-62.408,2.943-125.925-3.068-187.871
		C300.322,47.332,244.332,54.887,219.911,59.657z M276.559,136.767c-0.343,40.777-0.615,81.461,2.214,122.134
		c-12.635,0.364-25.21,1.24-37.829,0.794c-3.084-29.719-1.082-60.749-2.034-90.463c-0.908-28.327-1.474-56.67-1.664-85.013
		c10.595-1.414,21.452-1.751,31.955-0.207C283.592,86.134,276.64,127.172,276.559,136.767z"/>
</g>
</svg>