<?xml version="1.0" encoding="iso-8859-1"?>
<!-- Uploaded to: SVG Repo, www.svgrepo.com, Generator: SVG Repo Mixer Tools -->
<!DOCTYPE svg PUBLIC "-//W3C//DTD SVG 1.1//EN" "http://www.w3.org/Graphics/SVG/1.1/DTD/svg11.dtd">
<svg fill="#000000" version="1.1" id="Capa_1" xmlns="http://www.w3.org/2000/svg" xmlns:xlink="http://www.w3.org/1999/xlink" 
	 width="800px" height="800px" viewBox="0 0 307.121 307.121"
	 xml:space="preserve">
<g>
	<path d="M287.963,7.424c-0.366-9.881-15.738-9.917-15.372,0c1.195,32.549-28.499,37.308-52.29,49.068
		c-2.041,1.009-3.944,2.111-5.776,3.243c-12.862-9.746-26.343-18.57-41.271-25.076c-6.251-2.711-13.547-3.069-18.627,2.411
		c-27.742,29.889-57.097,58.168-86.292,86.619c-15.811,15.415-42.403,34.518-48.117,57.367
		C10.379,220.465,68.524,281.528,98.5,298.576c58.949,33.53,123.656-39.98,159.859-76.1c44.184-44.068,25.73-88.919-7.596-131.438
		c-0.829-1.732-2.114-3.426-3.964-4.975c-1.387-1.697-2.888-2.871-4.432-3.72c-4.611-3.885-9.234-7.764-13.9-11.589
		c6.467-3.813,13.907-7.281,22.151-10.878C274.248,49.562,288.96,34.481,287.963,7.424z M255.669,161.606
		c2.816,21.791-19.473,40.088-33.675,53.095c-33.837,30.96-81.92,87.976-126.782,42.003c-13.658-13.985-25.856-29.64-36.224-46.201
		c-12.478-19.924-6.812-26.001,7.119-41.444c32.327-35.795,69.292-67.494,102.739-102.382c8.605,4.611,16.748,9.911,24.578,15.66
		c-6.275,12.226-8.269,26.754-6.983,42.354c0.811,9.806,16.188,9.881,15.372,0c-1.123-13.676,0.654-23.956,4.731-32.194
		c6.221,5.011,12.358,10.157,18.513,15.321C237.541,123.161,253.033,141.133,255.669,161.606z"/>
</g>
</svg>