<?xml version="1.0" encoding="iso-8859-1"?>
<!-- Uploaded to: SVG Repo, www.svgrepo.com, Generator: SVG Repo Mixer Tools -->
<svg height="800px" width="800px" version="1.1" id="Capa_1" xmlns="http://www.w3.org/2000/svg" xmlns:xlink="http://www.w3.org/1999/xlink" 
	 viewBox="0 0 286.255 286.255" xml:space="preserve">
<g>
	<path style="fill:#010002;" d="M170.233,271.774c32.248,15.811,85.431,27.853,102.695-15.278
		c22.512-56.251-25.243-107.797-65.552-139.528c-31.693-24.954-90.37-91.344-134.78-59.248
		c-50.594,36.556,0.984,86.204,32.178,111.827c21.588,17.731,44.622,33.635,66.275,51.28c12.64,10.307,25.498,16.758,41.685,14.033
		c11.373-1.92,23.094-13.157,23.034-25.139c-0.098-20.679-17.296-33.657-32.401-45.041c-14.016-10.563-27.543,13.065-13.723,23.48
		c0.587,0.446,25.667,17.443,15.86,20.473c-6.848,2.116-19.863-10.753-24.666-14.522c-21.017-16.508-42.675-32.161-63.327-49.131
		c-12.189-10.013-41.794-31.242-39.02-49.822c6.239-41.832,54.94-2.35,68.978,8.936c36.393,29.278,81.635,55.353,98.822,100.846
		c9.856,26.086,5.461,55.163-27.402,54.505c-15.349-0.31-31.519-9.257-44.736-16.089c-34.631-17.9-65.796-42.843-93.122-70.458
		c-26.037-26.314-51.687-58.998-44.91-97.832c14.887-85.295,112.692-38.47,158.739-10.046c14.968,9.241,28.615-14.294,13.723-23.48
		C146.307,3.09,39.386-36.637,11.391,61.255C-14.907,153.213,99.797,237.236,170.233,271.774z"/>
</g>
</svg>