<?xml version="1.0" encoding="iso-8859-1"?>
<!-- Uploaded to: SVG Repo, www.svgrepo.com, Generator: SVG Repo Mixer Tools -->
<svg height="800px" width="800px" version="1.1" id="Capa_1" xmlns="http://www.w3.org/2000/svg" xmlns:xlink="http://www.w3.org/1999/xlink" 
	 viewBox="0 0 305.312 305.312" xml:space="preserve">
<g>
	<path style="fill:#010002;" d="M182.371,145.745c-7.876,2.589-13.609,5.771-21.501,1.164c-4.863-2.845-8.882-5.309-14.435-6.57
		c-9.747-2.219-19.711,3.095-28.234,7.049c-7.952,3.682-1.039,15.398,6.864,11.738c5.357-2.48,10.671-5.178,16.649-5.64
		c6.75-0.522,11.781,5.847,17.633,8.023c9.638,3.579,17.291,0.424,26.641-2.649C194.277,156.128,190.726,142.993,182.371,145.745z"
		/>
	<path style="fill:#010002;" d="M125.065,129.874c5.357-2.48,10.671-5.178,16.649-5.64c6.75-0.522,11.781,5.847,17.633,8.023
		c9.638,3.579,17.291,0.424,26.641-2.649c8.289-2.725,4.737-15.86-3.617-13.108c-7.876,2.594-13.609,5.776-21.501,1.164
		c-4.863-2.845-8.882-5.309-14.435-6.57c-9.747-2.219-19.711,3.095-28.234,7.049C110.249,121.819,117.162,133.534,125.065,129.874z"
		/>
	<path style="fill:#010002;" d="M182.371,172.799c-7.876,2.594-13.609,5.776-21.501,1.164c-4.863-2.85-8.882-5.314-14.435-6.576
		c-9.747-2.219-19.711,3.1-28.234,7.049c-7.952,3.682-1.039,15.398,6.864,11.738c5.357-2.48,10.671-5.173,16.649-5.635
		c6.75-0.522,11.781,5.847,17.633,8.023c9.638,3.579,17.291,0.424,26.641-2.649C194.277,183.182,190.726,170.047,182.371,172.799z"
		/>
	<path style="fill:#010002;" d="M182.371,199.842c-7.881,2.594-13.609,5.776-21.501,1.164c-4.863-2.845-8.882-5.309-14.435-6.57
		c-9.747-2.219-19.711,3.095-28.234,7.049c-7.952,3.682-1.039,15.398,6.864,11.738c5.357-2.48,10.671-5.178,16.649-5.64
		c6.75-0.522,11.781,5.847,17.633,8.028c9.638,3.579,17.291,0.424,26.641-2.654C194.277,210.225,190.726,197.09,182.371,199.842z"/>
	<path style="fill:#010002;" d="M254.597,223.448c-2.584-41.125,0.294-81.368-0.31-122.52c-0.386-26.494-3.019-64.203-35.822-66.155
		c-18.177-1.082-36.556-0.87-54.994-0.158c1.066-0.772,2.051-1.664,2.926-2.681c2.97-3.454,4.601-8.033,4.601-12.896
		C170.998,9.578,164.613,0,152.408,0c-5.613,0-10.584,2.176-13.989,6.141c-2.97,3.454-4.601,8.033-4.601,12.896
		c0,4.661,1.566,9.344,4.601,12.901c-0.169,1.305-0.321,2.611-0.435,3.9c-25.765,1.447-51.541,3.247-76.979,3.383
		c-2.894,0.016-5.107,1.044-6.728,2.594c-2.061,1.643-3.476,4.161-3.47,7.604c0.087,47.733,1.273,95.456,1.637,143.183
		c0.196,25.504-15.572,83.511,12.814,99.421c29.181,16.361,67.33,5.809,98.937,5.173c19.091-0.386,68.162,18.139,82.908,0.457
		C262.298,279.426,255.946,244.975,254.597,223.448z M188.267,92.736c-1.583-3.845-3.394-7.691-5.314-11.536
		c9.301,0.43,17.138,3.133,18.03,14.593c0.99,12.706,0.636,25.553,0.495,38.286c-0.185,16.328-0.446,32.248,1.175,48.489
		c1.741,17.454,9.355,50.426-19.031,48.669c-20.07-1.246-39.999,3.416-59.987-0.087c-6.13-1.071-12.265-1.229-18.406-2.099
		c-3.22-0.462-3.622-25.243-3.824-29.181c-1.98-38.666,4.357-77.354,5.488-115.999c5.939-0.152,11.873-0.354,17.807-0.625
		c-2.257,4.003-4.079,8.044-4.427,12.211C135.693,95.456,174.67,100.895,188.267,92.736z M233.7,280.384
		c-1.681,8.028-61.347-3.225-69.506-3.584c-19.363-0.854-82.777,16.1-92.089-8.48c-5.33-14.071-1.11-33.804,0.136-48.353
		c1.479-17.253,0.555-34.766,0.359-52.052c-0.413-36.164-1.126-72.323-1.305-108.488c21.62-0.315,43.23-1.077,64.834-1.833
		c-0.343,2.023-0.756,4.063-1.343,6.13c-0.473,1.893-1.246,3.748-2.116,5.586c-10.769,0.49-21.555,0.995-32.373,1.148
		c-1.942,0.027-3.432,0.745-4.514,1.8c-0.136,0.109-0.25,0.234-0.375,0.354c-0.016,0.022-0.033,0.038-0.049,0.054
		c-1.093,1.088-1.833,2.6-1.86,4.591c-0.566,45.509-8.681,90.925-4.743,136.461c2.932,33.902,24.59,32.7,55.658,32.428
		c27.201-0.234,69.087,8.702,73.509-26.689c2.143-17.155-1.784-35.338-3.079-52.454c-2.257-29.92,1.496-59.748-2.083-89.745
		c-0.326-2.741-1.806-6.097-4.988-6.554c-10.514-1.507-21.006-2.143-31.498-2.35c-2.061-3.9-4.09-7.794-6.01-11.689
		c6.005-0.12,12.009-0.294,18.02-0.326c11.346-0.065,23.921-2.796,35.142-0.593c13.799,2.698,10.606,53.482,10.481,63.419
		c-0.354,29.186-3.204,57.795-0.968,86.965C234.782,230.132,238.682,256.588,233.7,280.384z"/>
</g>
</svg>