<?xml version="1.0" encoding="iso-8859-1"?>
<!-- Uploaded to: SVG Repo, www.svgrepo.com, Generator: SVG Repo Mixer Tools -->
<svg height="800px" width="800px" version="1.1" id="Capa_1" xmlns="http://www.w3.org/2000/svg" xmlns:xlink="http://www.w3.org/1999/xlink" 
	 viewBox="0 0 285.649 285.649" xml:space="preserve">
<g>
	<path style="fill:#010002;" d="M123.699,26.867c-24.976,3.122-50.529,3.59-76.756,3.601c-7.147,0-11.33,4.536-12.651,9.888
		c-1.974,2.154-3.138,5.173-2.758,9.149c7.441,77.719,57.725,144.679,59.83,223.002c0.473,17.503,27.669,17.546,27.195,0
		c-0.74-27.554-7.375-53.542-15.969-79.013c-0.827-1.463-1.382-3.106-1.637-4.895c-3.236-9.301-6.69-18.547-10.204-27.777
		c4.531-0.114,9.083-0.299,13.641-0.533c1.316-9.105,2.632-18.21,3.954-27.315c-9.317,0.538-18.651,0.751-27.821,0.816
		c-9.159-24.786-17.215-49.882-20.739-76.196c20.391-0.201,40.331-1.023,59.922-3.138C121.039,45.262,122.366,36.064,123.699,26.867
		z"/>
	<path style="fill:#010002;" d="M249.01,85.772c9.382-7.06,5.613-24.481-8.072-24.481c-0.604,0-1.207,0-1.811,0
		c-2.42,0-5.227,0.805-7.566,2.241c-8.904,2.779-17.802,5.749-26.891,7.201c9.361-17.28,17.138-35.251,23.997-53.874
		c4.406-11.961-10.291-20.44-19.978-15.354c-18.694,9.807-37.693,16.279-57.023,20.587c-1.365,9.431-2.73,18.857-4.096,28.289
		c14.343-2.692,28.517-6.277,42.533-11.27c-6.075,13.037-12.847,25.705-20.739,37.981c-4.444,6.918-0.402,18.482,8.126,19.972
		c10.916,1.909,21.017,1.534,30.954-0.005c-18.846,19.689-44.715,28.838-72.416,33.097c-1.333,9.23-2.671,18.466-4.003,27.696
		C180.7,151.617,226.399,133.864,249.01,85.772z"/>
</g>
</svg>