<?xml version="1.0" encoding="iso-8859-1"?>
<!-- Uploaded to: SVG Repo, www.svgrepo.com, Generator: SVG Repo Mixer Tools -->
<svg height="800px" width="800px" version="1.1" id="Capa_1" xmlns="http://www.w3.org/2000/svg" xmlns:xlink="http://www.w3.org/1999/xlink" 
	 viewBox="0 0 317.329 317.329" xml:space="preserve">
<g>
	<path style="fill:#010002;" d="M58.592,303.562c31.334,20.549,80.999,3.443,115.499,4.765c22.061,0.843,76.936,19.902,94.39-0.114
		c18.841-21.599,10.677-64.622,8.964-90.424c-3.008-45.275,0.256-89.511-0.044-134.834c-0.207-31.574-2.687-78.834-42.305-81.755
		C174.999-3.234,112.357,6.034,52.033,6.317c-3.867,0.016-6.831,1.398-8.991,3.47c-2.741,2.187-4.612,5.542-4.607,10.128
		c0.098,58.47,1.675,116.924,1.936,175.388C40.529,229.367,24.261,281.049,58.592,303.562z M67.3,161.597
		c-0.457-42.778-1.36-85.546-1.588-128.329c44.508-0.68,88.956-3.323,133.48-3.535c8.246-0.038,37.056-6.315,42.49,1.67
		c12.042,17.693,8.751,49.583,8.441,69.876c-0.511,33.434-3.677,66.21-1.12,99.611c2.132,27.783,7.549,59.944,0.484,87.308
		c-0.984,3.807-67.379-6.402-75.402-7.071c-32.33-2.687-70.958,13.141-101.776-1.05c-14.947-6.886-6.913-46.352-5.825-58.932
		C68.203,201.34,67.512,181.455,67.3,161.597z"/>
	<path style="fill:#010002;" d="M94.305,245.179c11.58,7.316,31.666,6.162,44.954,7.005c15.338,0.968,31.084-1.572,46.439-1.98
		c11.493-0.305,20.984,1.648,32.063-1.98c12.929-4.226,14.185-19.281,14.887-30.47c1.262-20.119-3.291-40.26-3.96-60.319
		c-1.104-33.341,1.784-66.259-2.257-99.54c-0.337-2.752-1.8-6.081-4.993-6.56c-41.299-6.13-82.5-0.756-123.978-0.239
		c-1.958,0.022-3.459,0.745-4.542,1.811c-0.103,0.087-0.19,0.185-0.288,0.272c-0.038,0.049-0.087,0.087-0.125,0.136
		c-1.088,1.088-1.822,2.594-1.844,4.574c-0.571,50.567-9.04,100.851-6.054,151.483C85.168,218.788,84.907,239.239,94.305,245.179z
		 M104.074,64.515c22.996-0.533,45.944-2.214,68.94-2.79c5.265-0.131,40.015-2.235,40.983,5.733
		c1.985,16.328,1.697,32.982,1.605,49.398c-0.12,20.402-0.941,40.505,1.077,60.83c2.214,22.295,12.096,61.467-22.871,59.302
		c-25.846-1.599-50.507,2.747-76.419-1.159c-3.22-0.484-14.229,0.571-15.79-3.66c-4.199-11.379-3.682-25.749-4.063-37.758
		C96.176,151.045,102.959,107.837,104.074,64.515z"/>
</g>
</svg>