<?xml version="1.0" encoding="iso-8859-1"?>
<!-- Uploaded to: SVG Repo, www.svgrepo.com, Generator: SVG Repo Mixer Tools -->
<!DOCTYPE svg PUBLIC "-//W3C//DTD SVG 1.1//EN" "http://www.w3.org/Graphics/SVG/1.1/DTD/svg11.dtd">
<svg fill="#000000" version="1.1" id="Capa_1" xmlns="http://www.w3.org/2000/svg" xmlns:xlink="http://www.w3.org/1999/xlink" 
	 width="800px" height="800px" viewBox="0 0 342.447 342.447"
	 xml:space="preserve">
<g>
	<g>
		<path d="M214.587,221.806c-11.649,1.195-23.311,2.708-34.99,2.9c0.853-24.662,0.685-49.383-0.612-74.018
			c-0.349-6.659-4.398-13.231-11.28-14.823c-8.626-1.994-17.474-2.639-26.304-2.504c-19.807,0.288-19.837,31.042,0,30.744
			c2.483-0.036,4.936-0.012,7.38,0.093c0.921,25.042,0.805,50.167-0.505,75.177c-0.474,9.098,7.413,14.424,15.373,15.372
			c17.018,2.03,33.987-0.444,50.932-2.186C234.115,250.533,234.307,219.771,214.587,221.806z"/>
		<path d="M290.08,122.823C282.111,68.207,253.636-6.601,187.259,0.466c-0.09-0.006-0.162-0.03-0.246-0.03
			C130.628-0.401,76.978,19.015,60.075,77.394c-14.469,49.96-13.772,111.59-4.489,162.175c9.217,50.2,38.977,84.253,87.715,98.388
			c34.026,9.86,68.241,3.399,95.791-18.555C293.166,276.318,299.218,185.459,290.08,122.823z M230.704,284.003
			c-15.12,19.408-35.963,28.571-60.348,27.629c-41.5-1.604-70.271-28.066-81.873-66.582c-12.574-41.732-8.608-88.843-3.377-131.475
			c3.137-25.538,7.848-49.936,29.855-66.151c20.266-14.928,47.892-16.606,72.046-16.252c1.621,0.027,3.068-0.22,4.425-0.583
			c46.43-6.911,62.984,63.045,68.335,95.843C267.994,176.932,263.286,242.199,230.704,284.003z"/>
		<path d="M156.355,116.786c6.344,0,11.964-2.462,15.814-6.941c3.356-3.906,5.203-9.077,5.203-14.58
			c0-10.694-7.221-21.521-21.017-21.521c-6.347,0-11.967,2.459-15.816,6.941c-3.357,3.903-5.2,9.083-5.2,14.58
			C135.339,105.956,142.55,116.786,156.355,116.786z"/>
	</g>
</g>
</svg>