<?xml version="1.0" encoding="iso-8859-1"?>
<!-- Uploaded to: SVG Repo, www.svgrepo.com, Generator: SVG Repo Mixer Tools -->
<svg height="800px" width="800px" version="1.1" id="Capa_1" xmlns="http://www.w3.org/2000/svg" xmlns:xlink="http://www.w3.org/1999/xlink" 
	 viewBox="0 0 312.967 312.967" xml:space="preserve">
<g>
	<path style="fill:#010002;" d="M48.586,309.1c29.436,3.383,59.03-0.169,88.619,0.848c27.582,0.957,55.174,1.909,82.761,2.856
		c12.058,0.413,23.247,0.31,34.919-3.601c24.612-8.246,25.694-29.088,26.075-51.388c1.294-76.098-11.395-154.932-31.612-228.365
		c-6.402-23.225-26.956-28.762-48.478-29.295C161.887-0.796,122.932,2.973,83.94,1.793c-8.305-0.25-12.619,5.716-13.054,12.118
		c-0.256,0.892-0.451,1.828-0.544,2.839c-6.298,69.299-31.519,140.382-37.263,210.867c-0.261,1.294-0.348,2.605-0.288,3.922
		c-1.605,22.621-1.153,45.177,2.676,67.586C36.56,305.478,42.962,308.453,48.586,309.1z M76.162,146.385
		c8.044-38.911,15.752-77.773,20.092-117.261c23.954,0.19,47.869-0.925,71.828-1.425c13.097-0.272,26.254-0.511,39.346-0.19
		c18.661,0.462,19.314,22.376,22.458,36.366c7.163,31.9,15.746,65.791,18.433,98.311c1.207,14.637,2.943,29.795,4.221,44.927
		c-17.677,0-35.354,0-53.025,0c-8.121,0-12.662,6.244-13.598,13.598c-1.099,8.664-1.088,17.269-1.137,25.917
		c-7.832,0.854-15.67,1.692-23.535,2.279c-8.376,0.625-17.133,1.006-25.482-0.141c-6.647-0.914-5.254-13.076-7.549-17.133
		c-12.722-22.485-41.37-19.167-65.568-16.475C66.11,192.035,71.479,169.044,76.162,146.385z M59.605,242.787
		c13.222-1.333,26.554-3.149,39.645-1.235c6.26,0.919,8.702,25.417,18.341,29.55c25.009,10.715,54.445,3.965,80.569,1.284
		c7.609-0.783,13.271-5.602,13.598-13.598c0.337-8.213,0.18-16.344,0.424-24.476c13.968,0,27.946,0,41.913,0
		c0.12,5.107,0.163,10.198-0.005,15.208c-0.669,19.64,0.783,36.871-23.296,36.463c-12.586-0.212-25.188-0.87-37.774-1.3
		c-22.958-0.794-45.917-1.583-68.88-2.377c-21.414-0.74-42.452,1.523-63.746,0.5C58.806,269.471,58.735,256.118,59.605,242.787z"/>
</g>
</svg>