<?xml version="1.0" encoding="iso-8859-1"?>
<!-- Uploaded to: SVG Repo, www.svgrepo.com, Generator: SVG Repo Mixer Tools -->
<svg height="800px" width="800px" version="1.1" id="Capa_1" xmlns="http://www.w3.org/2000/svg" xmlns:xlink="http://www.w3.org/1999/xlink" 
	 viewBox="0 0 324.906 324.906" xml:space="preserve">
<g>
	<path style="fill:#010002;" d="M262.11,124.457c-0.31-5.51-0.587-11.014-0.794-16.524c-0.054-1.392-0.321-2.627-0.685-3.802
		c-0.141-1.517-0.468-3.073-1.175-4.661c-8.061-18.172-22.017-33.717-27.533-52.955c-3.416-11.912-18.319-12.722-24.851-3.247
		c-12.325,17.862-17.361,40.075-31.601,56.664c-3.938,4.591-4.161,9.883-2.355,14.326c-0.016,0.566-0.082,1.099-0.027,1.708
		c0.375,4.465,0.691,8.936,1.012,13.402c-14.392,0-28.789,0-43.181,0c-0.424-7.141-0.794-14.288-1.066-21.43
		c-0.054-1.387-0.321-2.616-0.68-3.78c-0.136-1.528-0.468-3.089-1.175-4.688c-8.066-18.166-22.023-33.711-27.533-52.955
		c-3.416-11.917-18.324-12.717-24.851-3.247C63.291,61.13,58.254,83.344,44.015,99.933c-3.938,4.591-4.161,9.883-2.355,14.326
		c-0.016,0.566-0.082,1.099-0.027,1.713c0.424,5.015,0.783,10.035,1.137,15.05c-0.136-0.005-0.25-0.038-0.386-0.038
		c-10.938,0.022-22.055,0.179-32.52,3.693c-7.343,2.469-11.101,9.159-9.497,16.731c3.269,15.338,0.506,31.47,5.118,46.618
		c5.771,18.95,23.203,23.04,40.668,20.864c0.25,18.678,0.305,37.366,0.305,56.06c0,12.129,13.005,15.86,21.027,11.21
		c16.85-1.447,33.39-0.593,50.377,0.789c5.532,0.446,12.167-4.438,13.114-9.981c3.633-21.332,4.645-42.702,4.395-64.094
		c14.071,0.228,28.115,0.974,42.18,1.322c0.31,20.25,0.364,40.499,0.364,60.765c0,12.129,13.005,15.86,21.027,11.21
		c16.85-1.447,33.396-0.593,50.382,0.789c5.532,0.446,12.167-4.438,13.114-9.981c3.454-20.282,4.52-40.603,4.406-60.939
		c15.48,0.413,30.301,2.181,45.737-0.528c5.961-1.05,9.872-7.495,9.981-13.114c0.397-20.522,6.793-43.638-3.389-62.729
		C308.195,119.067,281.593,123.701,262.11,124.457z M40.387,192.473c-9.274,1.343-9.736-2.649-10.459-11.194
		c-0.636-7.587-0.821-15.126-1.414-22.648c4.569-0.43,9.181-0.457,13.88-0.468c0.713,0,1.349-0.114,1.996-0.201
		c0.566,11.569,0.968,23.138,1.262,34.718C44.02,192.326,42.274,192.206,40.387,192.473z M106.335,258.906
		c-10.943-0.68-21.778-0.968-32.7-0.375c-0.098-47.581-0.761-95.113-4.797-142.569c-0.098-1.153-0.326-2.214-0.631-3.22
		c7.283-10.209,12.461-21.463,17.916-32.618c5.586,9.747,11.694,19.243,16.611,29.387
		C104.736,159.023,112.563,209.481,106.335,258.906z M134.461,185.641c-0.49-9.687-1.11-19.379-1.762-29.077
		c14.365,0,28.724,0,43.083,0c0.5,10.133,0.859,20.271,1.153,30.41C162.771,186.604,148.63,185.848,134.461,185.641z
		 M237.787,258.911c-10.949-0.68-21.783-0.968-32.705-0.375c-0.098-47.581-0.761-95.113-4.797-142.569
		c-0.098-1.153-0.326-2.214-0.631-3.22c7.288-10.209,12.461-21.468,17.916-32.624c5.586,9.747,11.694,19.243,16.616,29.382
		C236.193,159.017,244.015,209.486,237.787,258.911z M296.333,190.15c-10.062,0.364-20.239-1.088-30.258-1.349
		c-0.587-12.466-1.425-24.933-2.263-37.404c11.585-1.273,30.872-4.999,33.363,6.685C299.324,168.16,297.578,179.37,296.333,190.15z"
		/>
</g>
</svg>