<?xml version="1.0" encoding="iso-8859-1"?>
<!-- Uploaded to: SVG Repo, www.svgrepo.com, Generator: SVG Repo Mixer Tools -->
<svg height="800px" width="800px" version="1.1" id="Capa_1" xmlns="http://www.w3.org/2000/svg" xmlns:xlink="http://www.w3.org/1999/xlink" 
	 viewBox="0 0 316.715 316.715" xml:space="preserve">
<g>
	<path style="fill:#010002;" d="M136.981,229.561c47.189-0.468,94.455,0.843,141.622-0.402c11.895-0.315,17.949-14.56,9.616-23.214
		c-0.272-0.283-0.506-0.62-0.772-0.914c4.863,0.049,9.72-0.022,14.495-0.49c7.729-0.756,13.13-5.635,13.598-13.598
		c1.392-23.638,1.43-47.081,0.723-70.746c-0.163-5.57-3.976-12.124-9.981-13.114c-7.348-1.202-14.713-1.746-22.099-2.023
		c3.443-8.615-0.859-18.944-11.922-19.14c-85.959-1.501-172.424-1.925-258.356,0.908c-1.958,0.065-3.666,0.506-5.189,1.159
		c-4.95,1.49-8.838,5.602-8.409,12.439c1.985,31.481,0.239,62.93-0.294,94.411c-0.332,19.265,5.107,34.239,26.885,36.028
		C62.884,233.831,100.827,229.926,136.981,229.561z M278.277,131.979c3.688,0.011,7.375,0.098,11.047,0.321
		c0.283,15.202,0.196,30.355-0.392,45.541c-3.345-0.011-6.701-0.071-10.051-0.174C275.731,162.895,276.259,146.942,278.277,131.979z
		 M27.487,183.144c0.718-23.116,1.365-46.314,0.56-69.451c73.884-2.132,148.089-1.991,222.012-0.87
		c-10.394,27.804-9.219,62.506,3.53,89.576c-63.218,1.104-126.638,0.386-189.829,0.473c-10.274,0.016-20.489,1.316-30.774,1.305
		C23.184,204.166,27.198,192.309,27.487,183.144z"/>
	<path style="fill:#010002;" d="M46.072,193.299c61.63-1.028,123.38,0,185.037,0c3.552,0,6.995-3.095,6.799-6.799
		c-1.012-18.906-2.029-37.807-3.04-56.713c-0.218-4.036-2.959-6.353-6.799-6.799c-33.336-3.862-68.293-1.061-101.825-0.332
		c-26.472,0.577-52.797-0.658-79.274,1.322c-0.919,0.071-1.713,0.31-2.437,0.631c-0.016,0.005-0.033,0.016-0.049,0.016
		c-0.147,0.065-0.305,0.12-0.441,0.196c-2.17,0.925-3.851,2.894-3.873,5.95c-0.136,18.58-0.767,37.149-0.897,55.723
		C39.246,190.161,42.384,193.364,46.072,193.299z M53.66,137.255c24.226-1.343,48.348-0.446,72.584-1.001
		c31.367-0.718,63.996-3.111,95.358-0.261c0.783,14.566,1.561,29.121,2.344,43.687c-56.98-0.071-114.014-0.859-170.966-0.044
		C53.165,165.511,53.48,151.386,53.66,137.255z"/>
	<path style="fill:#010002;" d="M102.731,157.586c12.107,4.019,22.991,10.802,35.196,14.593c4.493,1.392,8.273-2.322,8.605-6.56
		c0.044-1.746,0.245-3.47,0.555-5.178c8.708,3.225,17.617,5.738,26.456,8.73c8.327,2.817,11.873-10.318,3.612-13.114
		c-10.34-3.497-20.973-6.054-30.992-10.476c-3.079-1.36-7.675-1.213-9.301,2.442c-1.262,2.834-2.094,5.548-2.681,8.316
		c-9.339-3.791-18.221-8.675-27.837-11.868C97.999,141.699,94.453,154.834,102.731,157.586z"/>
</g>
</svg>