<?xml version="1.0" encoding="iso-8859-1"?>
<!-- Uploaded to: SVG Repo, www.svgrepo.com, Generator: SVG Repo Mixer Tools -->
<svg height="800px" width="800px" version="1.1" id="Capa_1" xmlns="http://www.w3.org/2000/svg" xmlns:xlink="http://www.w3.org/1999/xlink" 
	 viewBox="0 0 268.663 268.663" xml:space="preserve">
<g>
	<path style="fill:#010002;" d="M261.313,150.127c-11.542-5.374-22.975-10.971-34.359-16.638
		c12.787-7.609,25.259-16.861,28.185-29.447c4.618-19.825-19.815-50.719-27.957-66.993c-3.133-6.255-12.804-8.926-18.607-4.879
		c-10.9,7.593-21.947,14.957-33.048,22.235c0.267-16.404-0.897-34.097-10.372-43.572C150.248-4.076,110.63,1.336,92.153,0.025
		c-7.011-0.5-14.12,6.57-13.598,13.598c1.023,13.793,1.746,27.598,2.377,41.408c-15.632-8.496-34.13-15.866-46.286-8.567
		C17.959,56.488,6.972,82.144,1.19,99.854c-1.964,6.026,1.333,12.058,6.249,15.354c11.107,7.457,22.376,14.631,33.717,21.702
		c-15.442,8.893-31.421,20.342-35.533,35.294c-5.167,18.787,17.666,46.868,28.936,59.509c4.253,4.775,11.177,4.71,16.475,2.132
		c10.965-5.336,21.794-10.905,32.575-16.567c0.283,16.529,2.73,34.353,13.935,43.659c14.517,12.053,47.603,7.218,64.284,3.96
		c6.222-1.224,9.513-7.381,9.981-13.114c1.061-13.01,1.828-26.02,2.464-39.042c14.985,9.013,32.77,18.422,45.074,14.637
		c22.142-6.81,35.278-40.989,46.841-58.649C269.978,162.947,267.797,153.146,261.313,150.127z M31.018,98.146
		c3.748-7.936,8.55-15.088,13.271-22.752c4.683-7.598,21.038,1.169,32.977,8.572c-8.55,8.615-14.919,19.401-18.286,31.987
		C49.582,110.144,40.264,104.21,31.018,98.146z M47.939,205.013c-6.951-9.382-16.894-24.4-13.473-28.218
		c6.924-7.713,15.866-13.603,25.074-18.868c3.976,12.314,11.379,22.447,20.951,30.219C69.722,193.922,58.866,199.546,47.939,205.013
		z M210.246,63.825c4.922,9.856,9.834,19.717,14.838,29.529c5.347,10.487-1.817,8.528-10.465,14.223
		c-3.34,2.197-6.717,4.346-10.079,6.511c-2.774-13.619-9.236-25.281-18.379-34.19C194.25,74.616,202.267,69.248,210.246,63.825z
		 M144.716,30.859c1.724,0.12,2.404,16.709,2.73,30.687c-3.345-0.446-6.744-0.745-10.253-0.745
		c-10.068-0.082-19.717,1.441-28.648,4.313c-0.5-12.303-1.137-24.606-1.904-36.893C119.338,29.108,132.027,29.989,144.716,30.859z
		 M145.423,239.828c-10.285,0.707-20.511-0.386-30.91-0.68c-3.193-0.087-3.514-22.659-3.448-35.833
		c11.558,3.035,23.992,3.889,36.322,2.371C146.886,217.076,146.234,228.455,145.423,239.828z M157.025,174.217
		c-30.481,19.494-69.533-4.199-73.204-37.116c-3.514-31.438,25.438-49.327,53.368-49.098c6.636,0,12.494,1.311,17.595,3.579
		c0.734,0.446,1.507,0.8,2.312,1.11C185.596,107.691,187.271,154.881,157.025,174.217z M212.297,201.243
		c0.25-0.321-14.604-8.257-27.114-14.86c8.664-9.54,14.724-21.696,18.014-34.451c10.487,5.292,21.027,10.47,31.617,15.539
		C227.678,179.003,220.575,190.735,212.297,201.243z"/>
</g>
</svg>