<?xml version="1.0" encoding="iso-8859-1"?>
<!-- Uploaded to: SVG Repo, www.svgrepo.com, Generator: SVG Repo Mixer Tools -->
<!DOCTYPE svg PUBLIC "-//W3C//DTD SVG 1.1//EN" "http://www.w3.org/Graphics/SVG/1.1/DTD/svg11.dtd">
<svg fill="#000000" version="1.1" id="Capa_1" xmlns="http://www.w3.org/2000/svg" xmlns:xlink="http://www.w3.org/1999/xlink" 
	 width="800px" height="800px" viewBox="0 0 353.812 353.812"
	 xml:space="preserve">
<g>
	<path d="M155.109,350.403c31.183,1.081,62.371,2.155,93.561,3.225c13.637,0.468,26.277,0.348,39.481-4.071
		c27.82-9.319,29.045-32.883,29.478-58.097c1.459-86.024-12.887-175.148-35.74-258.164C274.652,7.03,251.414,0.779,227.083,0.179
		c-44.069-1.087-88.109,3.182-132.19,1.849C85.504,1.746,80.629,8.49,80.136,15.725c-0.288,1.015-0.51,2.066-0.616,3.213
		c-7.122,78.345-35.632,158.7-42.126,238.384c-0.294,1.466-0.393,2.949-0.324,4.438c-1.816,25.568-1.306,51.071,3.023,76.405
		c1.231,7.188,8.473,10.551,14.826,11.283C88.204,353.267,121.659,349.25,155.109,350.403z M86.099,165.491
		c9.1-43.991,17.807-87.922,22.716-132.567c27.078,0.216,54.115-1.045,81.206-1.609c14.802-0.307,29.676-0.577,44.477-0.216
		c21.096,0.522,21.834,25.298,25.383,41.115c8.106,36.059,17.805,74.375,20.849,111.143c1.363,16.543,3.327,33.682,4.768,50.789
		c-19.983,0-39.968,0-59.945,0c-9.182,0-14.315,7.056-15.373,15.372c-1.242,9.794-1.23,19.521-1.284,29.298
		c-8.852,0.967-17.715,1.915-26.607,2.575c-9.47,0.709-19.369,1.142-28.814-0.155c-7.512-1.033-5.938-14.784-8.533-19.372
		c-14.384-25.418-46.768-21.671-74.126-18.627C74.744,217.096,80.806,191.107,86.099,165.491z M68.274,319.718
		c-1.795-15.078-1.874-30.174-0.886-45.246c14.949-1.508,30.021-3.561,44.82-1.388c7.077,1.039,9.839,28.733,20.734,33.405
		c28.268,12.1,61.552,4.479,91.078,1.447c8.604-0.889,15.006-6.336,15.372-15.373c0.378-9.283,0.204-18.477,0.48-27.67
		c15.792,0,31.591,0,47.384,0c0.138,5.771,0.187,11.529-0.006,17.191c-0.757,22.206,0.895,41.686-26.337,41.224
		c-14.231-0.24-28.476-0.985-42.7-1.472c-25.959-0.895-51.915-1.789-77.874-2.684C116.132,318.313,92.347,320.871,68.274,319.718z"
		/>
	<path d="M108.599,218.009c48.975-0.211,97.929-2.606,146.808,1.537c14.826,1.255,14.706-21.815,0-23.059
		c-48.879-4.144-97.833-1.748-146.808-1.537C93.731,195.017,93.725,218.075,108.599,218.009z"/>
	<path d="M125.127,161.131c37.92,0,75.835,0,113.755,0c14.868,0,14.868-23.059,0-23.059c-37.92,0-75.834,0-113.755,0
		C110.259,138.073,110.259,161.131,125.127,161.131z"/>
	<path d="M133.963,105.792c32.023,0,64.056,0,96.08,0c14.868,0,14.868-23.059,0-23.059c-32.023,0-64.056,0-96.08,0
		C119.095,82.733,119.095,105.792,133.963,105.792z"/>
</g>
</svg>