<?xml version="1.0" encoding="iso-8859-1"?>
<!-- Uploaded to: SVG Repo, www.svgrepo.com, Generator: SVG Repo Mixer Tools -->
<!DOCTYPE svg PUBLIC "-//W3C//DTD SVG 1.1//EN" "http://www.w3.org/Graphics/SVG/1.1/DTD/svg11.dtd">
<svg fill="#000000" version="1.1" id="Capa_1" xmlns="http://www.w3.org/2000/svg" xmlns:xlink="http://www.w3.org/1999/xlink" 
	 width="800px" height="800px" viewBox="0 0 358.049 358.05"
	 xml:space="preserve">
<g>
	<path d="M346.255,121.064c-8.305-1.36-16.633-1.976-24.985-2.288c3.896-9.74-0.967-21.416-13.475-21.638
		c-97.176-1.696-194.928-2.177-292.077,1.027c-2.213,0.072-4.143,0.57-5.867,1.309c-5.594,1.684-9.992,6.335-9.506,14.063
		c2.246,35.591,0.271,71.142-0.33,106.732C-0.359,242.049,5.79,258.977,30.41,261c40.679,3.339,83.581-1.069,124.446-1.483
		c53.35-0.528,106.786,0.955,160.108-0.456c13.451-0.354,20.29-16.459,10.869-26.241c-0.307-0.324-0.57-0.702-0.871-1.033
		c5.501,0.055,10.989-0.023,16.388-0.552c8.736-0.858,14.844-6.371,15.372-15.372c1.573-26.728,1.615-53.227,0.816-79.981
		C357.346,129.585,353.035,122.175,346.255,121.064z M72.08,229.343c-11.613,0.018-23.163,1.489-34.789,1.477
		c-11.082-0.012-6.542-13.414-6.218-23.784c0.811-26.136,1.543-52.356,0.628-78.507c83.526-2.411,167.419-2.252,250.988-0.985
		c-11.751,31.435-10.425,70.665,3.987,101.265C215.219,230.052,143.519,229.234,72.08,229.343z M326.638,201.048
		c-3.777-0.012-7.566-0.084-11.361-0.197c-3.566-16.7-2.966-34.735-0.685-51.651c4.174,0.012,8.347,0.105,12.49,0.363
		C327.401,166.743,327.311,183.874,326.638,201.048z"/>
	<path d="M153.3,139.037c-33.393-0.82-66.839-0.315-100.202,1.12c-1.538,0.066-2.81,0.522-3.867,1.198
		c-2.177,1.138-3.801,3.285-3.819,6.488c-0.123,20.999-0.904,41.994-1.015,62.993c-0.024,4.138,3.51,7.746,7.686,7.687
		c34.882-0.535,69.779-0.337,104.655,0c4.02,0.035,7.908-3.531,7.686-7.687c-1.15-21.371-2.294-42.739-3.443-64.113
		C160.758,142.462,157.66,139.142,153.3,139.037z M59.893,203.102c0.192-15.954,0.579-31.9,0.769-47.843
		c28.427-1.096,56.907-1.489,85.358-0.955c0.874,16.264,1.747,32.525,2.621,48.798C119.058,202.831,89.476,202.729,59.893,203.102z"
		/>
</g>
</svg>