<?xml version="1.0" encoding="iso-8859-1"?>
<!-- Uploaded to: SVG Repo, www.svgrepo.com, Generator: SVG Repo Mixer Tools -->
<svg height="800px" width="800px" version="1.1" id="Capa_1" xmlns="http://www.w3.org/2000/svg" xmlns:xlink="http://www.w3.org/1999/xlink" 
	 viewBox="0 0 308.68 308.68" xml:space="preserve">
<g>
	<path style="fill:#010002;" d="M157.019,45.239c-26.853-0.228-48.68,17.584-50.627,44.736
		c-2.464,34.331,30.497,52.025,60.553,46.776c22.621-3.949,35.174-28.724,34.141-49.8C199.895,62.557,181.212,45.234,157.019,45.239
		z M164.884,108.648c-12.619,8.066-29.67-1.338-31.22-15.219c-1.561-14.011,10.981-21.093,23.361-20.989
		C176.42,72.429,179.879,99.059,164.884,108.648z"/>
	<path style="fill:#010002;" d="M123.128,5.322C72.746,21.041,52.736,68.388,62.727,117.562
		c14.305,70.43,40.418,133.001,88.706,187.12c4.569,5.124,14.729,5.532,19.227,0c41.951-51.611,60.526-125.126,74.113-189.143
		c6.57-24.699,4.389-51.916-7.044-74.738C217.518,0.438,161.93-6.786,123.128,5.322z M218.546,108.31
		c-11.455,53.994-25.988,118.093-58.116,164.956c-29.893-36.975-50.921-79.345-63.724-125.425
		c-12.678-45.634-19.184-96.636,33.651-116.293C185.193,11.142,233.285,52.886,218.546,108.31z"/>
</g>
</svg>