<?xml version="1.0" encoding="iso-8859-1"?>
<!-- Uploaded to: SVG Repo, www.svgrepo.com, Generator: SVG Repo Mixer Tools -->
<svg height="800px" width="800px" version="1.1" id="Capa_1" xmlns="http://www.w3.org/2000/svg" xmlns:xlink="http://www.w3.org/1999/xlink" 
	 viewBox="0 0 308.625 308.625" xml:space="preserve">
<g>
	<path style="fill:#010002;" d="M55.986,297.223c30.622,20.081,80.047,3.013,113.785,4.302c18.014,0.685,36.045,4.476,54.026,6.005
		c9.687,0.821,30.312,3.66,37.965-5.118c17.982-20.614,9.595-63.512,7.968-88.02c-3.008-45.275,0.256-89.511-0.044-134.834
		c-0.196-29.224-1.702-75.614-38.911-78.355C170.679-3.237,108.038,6.026,47.713,6.314c-2.899,0.011-5.124,1.05-6.744,2.605
		c-2.056,1.637-3.459,4.155-3.454,7.593c0.098,58.47,1.675,116.924,1.936,175.388C39.603,224.214,23.319,275.798,55.986,297.223z
		 M59.581,158.195c-0.473-43.893-1.414-87.776-1.61-131.669c45.65-0.587,91.235-3.383,136.901-3.595
		c10.356-0.049,38.454-6.891,45.427,3.35c12.445,18.275,9.225,50.605,8.904,71.594c-0.511,33.434-3.677,66.21-1.12,99.611
		c2.154,28.125,7.511,60.504,0.364,88.211c-2.274,8.806-69.707-3.829-78.682-4.574c-33.162-2.758-71.828,13.065-103.489-1.518
		c-16.937-7.8-8.735-47.657-7.506-61.869C60.484,197.938,59.793,178.053,59.581,158.195z"/>
	<path style="fill:#010002;" d="M148.537,205.471c20.891-0.745,43.175,0.859,63.773-2.045c11.89-1.681,19.298-14.615,19.907-25.509
		c1.273-22.806-4.047-45.443-3.699-68.374c0.337-22.327,0.315-44.04-2.584-66.237c-0.359-2.758-1.784-6.075-4.988-6.56
		c-43.817-6.587-87.585-0.751-131.593-0.239c-2.274,0.027-3.949,0.974-5.042,2.344c-1.033,1.077-1.724,2.545-1.757,4.455
		c-0.843,48.478-12.869,96.315-2.535,144.576C84.96,210.965,132.127,206.053,148.537,205.471z M95.903,49.947
		c19.466-0.43,38.889-1.659,58.339-2.545c12.602-0.577,25.172-0.555,37.774-0.158c18.009,0.56,21.571,3.296,22.839,20.103
		c1.262,16.801,0.19,33.804-0.065,50.621c-0.272,17.824,16.529,73.406-17.465,72.9c-19.281-0.288-38.204,0.626-57.496,1.311
		c-5.216,0.185-44.258-0.386-46.7-7.914C79.656,142.748,93.814,93.095,95.903,49.947z"/>
	<path style="fill:#010002;" d="M218.451,231.546h-41.37c-3.981-7.8-11.661-13.598-23.105-13.598
		c-11.444,0-19.124,5.798-23.105,13.598h-41.37c-7.511,0-13.598,6.086-13.598,13.598s6.086,13.598,13.598,13.598h41.37
		c3.981,7.8,11.661,13.598,23.105,13.598c11.444,0,19.124-5.798,23.105-13.598h41.37c7.511,0,13.598-6.086,13.598-13.598
		C232.048,237.638,225.962,231.546,218.451,231.546z"/>
</g>
</svg>