<?xml version="1.0" encoding="iso-8859-1"?>
<!-- Uploaded to: SVG Repo, www.svgrepo.com, Generator: SVG Repo Mixer Tools -->
<svg height="800px" width="800px" version="1.1" id="Capa_1" xmlns="http://www.w3.org/2000/svg" xmlns:xlink="http://www.w3.org/1999/xlink" 
	 viewBox="0 0 275.935 275.935" xml:space="preserve">
<g>
	<path style="fill:#010002;" d="M153.132,31.746c0-6.195,0-12.39,0-18.591c0-17.541-27.195-17.541-27.195,0
		c0,6.576,0,13.146,0,19.722C66.238,40.623,16.775,83.396,12.69,147.098c-5.901,92.04,81.298,144.266,164.706,124.783
		c59.177-13.821,89.445-77.828,85.845-134.203C259.319,76.173,213.713,32.965,153.132,31.746z M184.75,240.422
		c-25.014,13.076-58.329,9.214-84.257,1.882c-40.668-11.504-58.6-48.625-60.64-88.222c-2.681-52.014,39.433-85.867,86.09-93.59
		c0,26.994,0,53.994,0,80.988c0,17.541,27.195,17.541,27.195,0c0-27.516,0-55.022,0-82.538
		C249.083,61.721,264.981,198.47,184.75,240.422z"/>
</g>
</svg>