<?xml version="1.0" encoding="iso-8859-1"?>
<!-- Uploaded to: SVG Repo, www.svgrepo.com, Generator: SVG Repo Mixer Tools -->
<svg height="800px" width="800px" version="1.1" id="Capa_1" xmlns="http://www.w3.org/2000/svg" xmlns:xlink="http://www.w3.org/1999/xlink" 
	 viewBox="0 0 306.847 306.847" xml:space="preserve">
<g>
	<path style="fill:#010002;" d="M97.795,97.138c13.919-21.854,29.387-43.523,48.348-61.287
		c10.758-10.084,41.913,21.114,57.834,35.903c-4.504,4.863-9.127,9.622-14.071,14.065c-9.562,8.583-1.3,22.311,9.616,23.214
		c18.243,1.501,36.507,2.763,54.75,4.27c7.365,0.604,13.641-6.647,13.598-13.598c-0.12-20.315-2.643-40.945-15.354-57.545
		c-1.403-1.833-3.079-3.35-4.911-4.509c-4.775-3.824-11.444-4.487-16.437,1.757c-3.155,3.943-6.309,7.898-9.497,11.825
		c-19.863-18.487-52.933-53.814-75.614-46.265C114.7,15.4,91.122,57.041,74.331,83.415C64.867,98.253,88.413,111.878,97.795,97.138z
		 M237.867,74.098c0.957,3.541,1.61,7.169,2.023,10.884c-3.508-0.272-7.011-0.555-10.519-0.821
		C232.26,80.854,235.077,77.492,237.867,74.098z"/>
	<path style="fill:#010002;" d="M24.036,187.758c-7.745,27.146-22.142,60.297,6.021,79.726c11.857,8.175,31.797,7.778,45.454,8.42
		c19.124,0.897,38.286-0.348,57.398,0.767c17.53,1.023,17.427-26.178,0-27.195c-24.139-1.409-48.315,0.386-72.437-1.779
		c-15.463-1.382-22.164-5.396-19.107-21.724c1.898-10.106,5.51-19.853,8.469-29.724c5.292,1.985,10.525,4.107,15.616,6.56
		c10.057,4.835,23.877-3.1,19.978-15.354c-5.553-17.449-11.335-34.815-16.883-52.259c-2.029-6.364-9.687-12.445-16.731-9.497
		c-20.114,8.414-38.552,18.585-49.86,38.014c-2.747,4.716-2.366,9.279-0.288,12.885c1.403,3.171,4.112,5.831,8.409,7.087
		C14.714,185.039,19.375,186.382,24.036,187.758z M47.196,157.561c1.104,3.399,2.192,6.804,3.302,10.204
		c-4.199-1.447-8.42-2.817-12.651-4.139C40.772,161.363,43.905,159.361,47.196,157.561z"/>
	<path style="fill:#010002;" d="M287.727,143.076c-3.448-17.187-29.659-9.894-26.227,7.229c4.917,24.503,13.63,48.239,16.823,73.096
		c2.105,16.366-3.416,20.625-19.51,21.31c-6.973,0.299-13.968-0.12-20.962-0.495c0.544-4.433,1.202-8.86,2.056-13.255
		c2.154-11.03-9.154-22.18-19.978-15.354c-15.49,9.763-30.845,19.722-46.33,29.485c-5.678,3.579-9.48,12.559-4.879,18.602
		c13.25,17.383,27.712,32.536,49.365,38.655c5.842,1.648,10.476-0.435,13.407-4.025c2.187-2.165,3.693-5.162,3.807-9.089
		c0.179-5.961,0.348-11.933,0.577-17.911c24.802,1.267,57.692,3.878,67.379-22.175C315.195,216.993,294.069,174.71,287.727,143.076z
		 M208.91,267.604c-2.926-2.268-5.651-4.803-8.224-7.533c3.013-1.925,6.032-3.835,9.045-5.755
		C209.394,258.738,209.122,263.171,208.91,267.604z"/>
</g>
</svg>