<?xml version="1.0" encoding="iso-8859-1"?>
<!-- Uploaded to: SVG Repo, www.svgrepo.com, Generator: SVG Repo Mixer Tools -->
<svg height="800px" width="800px" version="1.1" id="Capa_1" xmlns="http://www.w3.org/2000/svg" xmlns:xlink="http://www.w3.org/1999/xlink" 
	 viewBox="0 0 315.696 315.696" xml:space="preserve">
<g>
	<path style="fill:#010002;" d="M293.855,89.906c-19.151-13.141-46.069-11.21-71.622-4.324c4.199-35.751,4.324-92.132-44.323-84.958
		c-53.091,7.832-57.507,89.978-55.511,134.089c-8.458,5.281-17.068,10.155-26.167,13.799c-22.42,8.985-58.377-12.336-82.353-13.407
		c-12.765-0.571-16.769,14.805-9.616,23.214c23.595,27.756,31.829,65.867,62.005,88.064c19.945,14.658,48.245,13.277,72.894,9.382
		c0.027,33.01,6.88,63.332,40.673,59.623c31.829-3.492,45.536-44.791,50.094-85.11c33.978-15.447,65.862-36.572,80.433-72.41
		C319.827,134.598,314.828,104.308,293.855,89.906z M166.679,39.127c11.786-19.504,27.522-13.282,29.833,6.162
		c1.615,13.527,0.359,27.777-1.566,41.212c-0.419,2.926,0.044,5.542,1.033,7.827c-9.475,3.699-18.237,7.604-25.591,11.085
		c-7.299,3.454-14.316,7.598-21.234,11.982C149.209,90.205,153.027,61.72,166.679,39.127z M231.795,199.612
		c0.141-14.397-0.723-27.157-2.116-35.974c-2.73-17.285-28.93-9.915-26.227,7.234c2.953,18.716-0.027,39.683-2.763,58.214
		c-1.898,12.874-7.147,57.605-24.682,59.525c-17.905,1.964-5.553-88.847-6.837-100.987c-1.828-17.253-29.045-17.432-27.195,0
		c0.957,9.013-0.511,23.916-1.659,40.429c-28.914,4.966-56.969,5.194-75.375-22.121c-8.392-12.455-15.039-25.694-22.355-38.558
		c22.67,6.021,44.328,14,68.483,4.329c34.864-13.968,63.001-40.82,99.241-53.558c23.747-8.344,77.746-22.828,76.538,16.214
		C285.892,165.351,258.751,185.872,231.795,199.612z"/>
</g>
</svg>