<?xml version="1.0" encoding="iso-8859-1"?>
<!-- Uploaded to: SVG Repo, www.svgrepo.com, Generator: SVG Repo Mixer Tools -->
<svg height="800px" width="800px" version="1.1" id="Capa_1" xmlns="http://www.w3.org/2000/svg" xmlns:xlink="http://www.w3.org/1999/xlink" 
	 viewBox="0 0 238.924 238.924" xml:space="preserve">
<g>
	<path style="fill:#010002;" d="M1.209,53.852C13.404,110.331,15.422,168.17,15.563,225.77c0.044,17.536,27.239,17.541,27.195,0
		c-0.141-60.036-2.616-120.296-15.316-179.152C23.738,29.48-2.484,36.752,1.209,53.852z"/>
	<path style="fill:#010002;" d="M69.954,146.653c0.19,26.39,2.295,52.721,2.469,79.111c0.114,17.53,27.31,17.541,27.195,0
		c-0.174-26.39-2.279-52.721-2.469-79.111C97.019,129.123,69.823,129.113,69.954,146.653z"/>
	<path style="fill:#010002;" d="M111.981,82.375c0.332,47.847,4.601,95.548,4.944,143.395c0.131,17.53,27.326,17.541,27.195,0
		c-0.343-47.847-4.618-95.543-4.944-143.395C139.057,64.845,111.862,64.834,111.981,82.375z"/>
	<path style="fill:#010002;" d="M193.567,225.77c1.441-71.437-16.399-141.296-17.307-212.618c-0.223-17.525-27.418-17.546-27.195,0
		c0.908,71.322,18.743,141.176,17.307,212.618C166.019,243.317,193.219,243.284,193.567,225.77z"/>
	<path style="fill:#010002;" d="M203.945,100.824c6.761,41.342,6.918,83.163,6.929,124.946c0.005,17.536,27.201,17.541,27.195,0
		c-0.011-44.307-0.74-88.352-7.898-132.175C227.344,76.321,201.144,83.675,203.945,100.824z"/>
</g>
</svg>